# xmcd
#
# Track frame offsets:
#	150
#	19762
#	33977
#	51237
#	65010
#	82155
#	99487
#	118160
#	133642
#	156650
#	172110
#	186722
#
# Disc length: 2686 seconds
#
# Revision: 1
# Processed by: cddbd v1.5.2PL0 Copyright (c) Steve Scherf et al.
# Submitted via: audiograbber 1.83.01
#
DISCID=b60a7c0c
DTITLE=Heloise and The Savoir Faire - Trash, Rats and Microphones
DYEAR=2008
DGENRE=Rock
TTITLE0=Illusions
TTITLE1=Members Only
TTITLE2=Pick 'n' Choose
TTITLE3=Datsun 280z
TTITLE4=Po'T
TTITLE5=Disco Heaven
TTITLE6=Downtown
TTITLE7=On Fuego
TTITLE8=Memorial Day
TTITLE9=Canadian Changs
TTITLE10=Givin' U the Bizness
TTITLE11=Odyle
EXTD=
EXTT0=
EXTT1=
EXTT2=
EXTT3=
EXTT4=
EXTT5=
EXTT6=
EXTT7=
EXTT8=
EXTT9=
EXTT10=
EXTT11=
PLAYORDER=
